<svg width="99" height="87" viewBox="0 0 99 87" fill="none" xmlns="http://www.w3.org/2000/svg">
<path d="M33.1652 72.5132L24.9569 11.9949L82.4007 36.3786L33.1652 72.5132Z" fill="#E7F6FF"/>
<path d="M43.3804 52.6857C43.367 52.4323 43.2604 52.2457 43.0604 52.1257C42.9004 52.1657 42.7704 52.2157 42.6704 52.2757C42.5704 52.3357 42.497 52.3957 42.4504 52.4557C42.4037 52.509 42.3204 52.6157 42.2004 52.7757C42.1604 52.829 42.117 52.9023 42.0704 52.9957C42.0304 53.089 42.007 53.1457 42.0004 53.1657C41.9804 53.2123 41.9704 53.2623 41.9704 53.3157C41.9704 53.3557 41.977 53.419 41.9904 53.5057C42.0104 53.5857 42.017 53.649 42.0104 53.6957C42.0037 53.7957 42.007 53.9523 42.0204 54.1657L42.0304 54.4757C42.0304 54.569 42.027 54.639 42.0204 54.6857C42.007 54.7923 41.9737 54.8857 41.9204 54.9657C41.867 55.0457 41.7937 55.0857 41.7004 55.0857C41.667 55.0857 41.6237 55.0757 41.5704 55.0557C41.5237 55.0423 41.447 55.019 41.3404 54.9857C41.2337 54.9523 41.1504 54.9023 41.0904 54.8357C41.0304 54.7623 41.0004 54.659 41.0004 54.5257C41.0004 54.179 40.967 53.659 40.9004 52.9657C40.887 52.8923 40.8737 52.769 40.8604 52.5957C40.8537 52.5223 40.8204 52.4657 40.7604 52.4257C40.7004 52.3857 40.627 52.3657 40.5404 52.3657C40.4004 52.3657 40.2937 52.4023 40.2204 52.4757C39.9137 52.649 39.6904 52.8457 39.5504 53.0657C39.4104 53.2857 39.3404 53.569 39.3404 53.9157L39.3504 54.2557C39.3504 54.4757 39.2937 54.679 39.1804 54.8657C39.147 54.9257 39.077 54.979 38.9704 55.0257C38.8704 55.0657 38.7837 55.079 38.7104 55.0657C38.6437 55.059 38.5737 55.0157 38.5004 54.9357C38.4337 54.849 38.4004 54.7723 38.4004 54.7057C38.3804 54.1457 38.3704 53.589 38.3704 53.0357C38.3704 52.5357 38.377 52.1623 38.3904 51.9157C38.397 51.789 38.4404 51.689 38.5204 51.6157C38.6004 51.5423 38.697 51.5057 38.8104 51.5057C38.957 51.5057 39.087 51.559 39.2004 51.6657C39.2604 51.779 39.3104 51.8623 39.3504 51.9157C39.3904 51.9623 39.4337 51.9857 39.4804 51.9857C39.5204 51.9857 39.567 51.9657 39.6204 51.9257C39.6737 51.879 39.747 51.8057 39.8404 51.7057C40.0604 51.4657 40.2904 51.3457 40.5304 51.3457C40.7904 51.3457 41.1037 51.4757 41.4704 51.7357C41.497 51.7557 41.5337 51.7857 41.5804 51.8257C41.627 51.859 41.667 51.8757 41.7004 51.8757C41.747 51.8757 41.8204 51.8223 41.9204 51.7157C42.2937 51.369 42.767 51.179 43.3404 51.1457C43.5204 51.139 43.7004 51.209 43.8804 51.3557C44.067 51.4957 44.1837 51.6657 44.2304 51.8657C44.3104 52.2057 44.367 52.6057 44.4004 53.0657C44.4404 53.759 44.457 54.279 44.4504 54.6257C44.4437 54.7857 44.4004 54.9123 44.3204 55.0057C44.2404 55.0923 44.137 55.1357 44.0104 55.1357C43.9104 55.1357 43.8037 55.1057 43.6904 55.0457C43.6437 55.0257 43.6004 54.989 43.5604 54.9357C43.5204 54.8823 43.5004 54.8357 43.5004 54.7957L43.4404 53.7357C43.4337 53.6223 43.427 53.479 43.4204 53.3057C43.4137 53.1257 43.4004 52.919 43.3804 52.6857ZM48.5004 54.7857C48.4404 54.759 48.3804 54.7457 48.3204 54.7457C48.2604 54.7457 48.2071 54.7623 48.1604 54.7957C48.1204 54.8223 48.0738 54.8657 48.0204 54.9257C47.9404 55.0057 47.8571 55.0723 47.7704 55.1257C47.6904 55.1723 47.5438 55.2157 47.3304 55.2557C47.2371 55.269 47.1604 55.2757 47.1004 55.2757C46.8204 55.2757 46.5271 55.2157 46.2204 55.0957C45.9204 54.969 45.7071 54.819 45.5804 54.6457C45.4471 54.459 45.3838 54.259 45.3904 54.0457C45.3971 53.7257 45.5304 53.4057 45.7904 53.0857C46.0438 52.779 46.2738 52.5623 46.4804 52.4357C46.6938 52.309 46.9838 52.229 47.3504 52.1957C47.4304 52.1957 47.5438 52.1823 47.6904 52.1557C47.8438 52.129 47.9204 52.0923 47.9204 52.0457C47.9204 51.9523 47.8771 51.869 47.7904 51.7957C47.7104 51.7157 47.5438 51.6757 47.2904 51.6757C47.1971 51.6757 47.0571 51.6823 46.8704 51.6957C46.6838 51.709 46.5538 51.7157 46.4804 51.7157C46.2538 51.7157 46.0904 51.679 45.9904 51.6057C45.9638 51.5923 45.9504 51.529 45.9504 51.4157C45.9504 51.2157 46.0204 51.089 46.1604 51.0357C46.4471 50.929 46.7438 50.8723 47.0504 50.8657C47.4371 50.8657 47.7938 50.9523 48.1204 51.1257C48.4538 51.2923 48.6971 51.5023 48.8504 51.7557C49.0038 52.009 49.1038 52.359 49.1504 52.8057C49.2038 53.3057 49.2304 53.9423 49.2304 54.7157C49.2304 54.929 49.2004 55.0523 49.1404 55.0857C49.0871 55.119 49.0371 55.1357 48.9904 55.1357C48.9304 55.1357 48.8738 55.119 48.8204 55.0857C48.7738 55.0457 48.7204 54.9923 48.6604 54.9257C48.6004 54.8523 48.5471 54.8057 48.5004 54.7857ZM46.9204 54.6657C47.2338 54.5723 47.5404 54.4223 47.8404 54.2157C47.9071 54.169 47.9671 54.109 48.0204 54.0357C48.0738 53.9623 48.1071 53.9157 48.1204 53.8957C48.1338 53.8757 48.1438 53.819 48.1504 53.7257C48.1638 53.6257 48.1671 53.5457 48.1604 53.4857C48.1538 53.4657 48.1404 53.4123 48.1204 53.3257C48.1071 53.239 48.0838 53.1623 48.0504 53.0957C48.0171 53.0423 47.9638 52.9923 47.8904 52.9457C47.8171 52.899 47.7504 52.879 47.6904 52.8857C47.5638 52.8923 47.4271 52.939 47.2804 53.0257C47.1338 53.1123 46.9971 53.229 46.8704 53.3757C46.7438 53.529 46.6438 53.6857 46.5704 53.8457C46.5038 53.999 46.4704 54.1423 46.4704 54.2757C46.4838 54.4557 46.5338 54.5757 46.6204 54.6357C46.6671 54.669 46.7238 54.6857 46.7904 54.6857C46.8438 54.6857 46.8871 54.679 46.9204 54.6657ZM52.1742 52.0057C52.1742 52.019 52.1809 52.039 52.1942 52.0657C52.2142 52.0923 52.2309 52.1157 52.2442 52.1357L52.5642 51.6757C52.6842 51.5023 52.8342 51.399 53.0142 51.3657C53.2009 51.3257 53.3575 51.3557 53.4842 51.4557C53.7975 51.7023 54.0142 51.979 54.1342 52.2857L54.3242 52.7657L54.6642 54.5457C54.6975 54.7323 54.7609 54.939 54.8542 55.1657C54.9075 55.3123 54.9442 55.4223 54.9642 55.4957L55.0542 55.8357C54.8809 55.889 54.7375 55.9157 54.6242 55.9157C54.2109 55.9157 53.9642 55.729 53.8842 55.3557C53.8109 54.9823 53.7242 54.539 53.6242 54.0257L53.5242 53.5057C53.3642 53.019 53.1909 52.779 53.0042 52.7857C52.8175 52.7857 52.6809 52.859 52.5942 53.0057C52.4675 53.2123 52.3942 53.4357 52.3742 53.6757C52.3609 53.909 52.3542 54.219 52.3542 54.6057C52.3209 54.7523 52.2709 54.8557 52.2042 54.9157C52.1375 54.969 52.0342 54.9957 51.8942 54.9957C51.5742 54.9957 51.4042 54.839 51.3842 54.5257C51.3575 54.1523 51.3442 53.7323 51.3442 53.2657C51.3442 53.1323 51.3309 53.0157 51.3042 52.9157C51.2775 52.8157 51.2175 52.7657 51.1242 52.7657C51.0842 52.7657 51.0309 52.769 50.9642 52.7757C50.9042 52.7823 50.8575 52.7823 50.8242 52.7757C50.7042 52.749 50.6009 52.7257 50.5142 52.7057C50.4275 52.6857 50.3475 52.6557 50.2742 52.6157C50.2075 52.569 50.1809 52.4923 50.1942 52.3857C50.2142 52.2723 50.2509 52.1657 50.3042 52.0657C50.3509 51.999 50.4009 51.9357 50.4542 51.8757C50.5142 51.809 50.5909 51.7357 50.6842 51.6557C50.9309 51.4423 51.1975 51.3323 51.4842 51.3257C51.6975 51.319 51.8509 51.3857 51.9442 51.5257C52.0442 51.6657 52.1209 51.8257 52.1742 52.0057ZM57.9355 50.8557C58.2422 50.8557 58.4922 50.9457 58.6855 51.1257C58.8855 51.299 59.0222 51.5323 59.0955 51.8257C59.1355 51.9857 59.1489 52.1657 59.1355 52.3657C59.1289 52.479 59.1222 52.639 59.1155 52.8457C59.1089 53.019 59.0855 53.2757 59.0455 53.6157C59.0055 53.949 58.9822 54.199 58.9755 54.3657C58.9689 54.4857 58.9655 54.6623 58.9655 54.8957L58.9755 55.7057C58.8489 55.759 58.7355 55.7857 58.6355 55.7857C58.5355 55.7857 58.4322 55.7523 58.3255 55.6857C58.2522 55.6323 58.2022 55.599 58.1755 55.5857C58.1555 55.5723 58.1255 55.5157 58.0855 55.4157L58.0055 55.2257L57.9555 54.9957C57.5822 55.0757 57.3622 55.1223 57.2955 55.1357C57.2022 55.1423 57.1289 55.1457 57.0755 55.1457C56.8289 55.1457 56.5889 55.0857 56.3555 54.9657C56.1289 54.8457 55.9455 54.679 55.8055 54.4657C55.6722 54.2523 55.6022 54.0223 55.5955 53.7757C55.5889 53.5423 55.6722 53.3557 55.8455 53.2157C56.2122 52.9223 56.5689 52.7757 56.9155 52.7757C57.0889 52.7757 57.2722 52.8157 57.4655 52.8957C57.5655 52.9357 57.7789 53.0257 58.1055 53.1657L58.1455 52.8857C58.1855 52.6457 58.2055 52.4523 58.2055 52.3057C58.2055 52.0857 58.1555 51.879 58.0555 51.6857C57.9555 51.6523 57.8822 51.6423 57.8355 51.6557C57.6622 51.6823 57.4889 51.719 57.3155 51.7657C57.1422 51.8057 56.9055 51.8257 56.6055 51.8257C56.5255 51.8257 56.4455 51.7957 56.3655 51.7357C56.2855 51.669 56.2489 51.5957 56.2555 51.5157C56.2755 51.409 56.3355 51.289 56.4355 51.1557C56.4955 51.0823 56.5789 51.039 56.6855 51.0257C56.8122 51.0057 56.9155 50.9923 56.9955 50.9857C57.4089 50.899 57.7222 50.8557 57.9355 50.8557ZM57.0855 54.3257C57.2455 54.279 57.3789 54.2257 57.4855 54.1657C57.5922 54.099 57.6855 54.0023 57.7655 53.8757C57.5255 53.689 57.3422 53.559 57.2155 53.4857C57.0889 53.4123 56.9655 53.3757 56.8455 53.3757C56.7989 53.3757 56.7422 53.3857 56.6755 53.4057C56.6089 53.4257 56.5589 53.4557 56.5255 53.4957C56.4655 53.569 56.4355 53.6723 56.4355 53.8057C56.4355 53.9257 56.4589 54.029 56.5055 54.1157C56.5589 54.189 56.6255 54.2457 56.7055 54.2857C56.7855 54.3257 56.8689 54.3457 56.9555 54.3457C56.9822 54.3457 57.0255 54.339 57.0855 54.3257ZM63.4565 52.7757C63.4365 53.2557 63.4032 53.619 63.3565 53.8657C63.3099 54.1123 63.2165 54.349 63.0765 54.5757C62.9432 54.7957 62.7232 55.0523 62.4165 55.3457L62.7665 55.5357C62.9799 55.6557 63.1365 55.739 63.2365 55.7857C63.5365 55.9257 63.7632 56.1023 63.9165 56.3157C64.0699 56.5357 64.1465 56.7757 64.1465 57.0357C64.1465 57.3557 64.0399 57.6723 63.8265 57.9857C63.5999 58.319 63.3165 58.5657 62.9765 58.7257C62.6365 58.8923 62.2732 58.979 61.8865 58.9857C61.5999 58.9923 61.3065 58.9457 61.0065 58.8457C60.8665 58.799 60.7265 58.6957 60.5865 58.5357C60.4465 58.3823 60.3332 58.209 60.2465 58.0157C60.1665 57.8223 60.1299 57.6523 60.1365 57.5057C60.1432 57.4723 60.1565 57.4357 60.1765 57.3957C60.1965 57.3623 60.2199 57.3423 60.2465 57.3357C60.2532 57.329 60.2665 57.3257 60.2865 57.3257C60.3065 57.3257 60.3332 57.3323 60.3665 57.3457C60.4065 57.3657 60.4332 57.379 60.4465 57.3857C60.4799 57.399 60.5032 57.429 60.5165 57.4757C60.6099 57.6823 60.7132 57.8457 60.8265 57.9657C60.9399 58.0857 61.0899 58.139 61.2765 58.1257C61.9632 58.079 62.4332 57.889 62.6865 57.5557C62.7732 57.449 62.8432 57.3257 62.8965 57.1857C62.9565 57.0523 62.9865 56.9257 62.9865 56.8057C62.9865 56.6323 62.9432 56.5057 62.8565 56.4257C62.7765 56.3457 62.6499 56.289 62.4765 56.2557C62.2899 56.2223 62.1099 56.1757 61.9365 56.1157C61.7699 56.0557 61.5665 55.9657 61.3265 55.8457C61.2065 55.7857 61.1232 55.7323 61.0765 55.6857C61.0299 55.639 61.0065 55.5823 61.0065 55.5157C61.0065 55.449 61.0465 55.279 61.1265 55.0057C61.1399 54.9657 61.0765 54.899 60.9365 54.8057C60.8032 54.7123 60.6865 54.6357 60.5865 54.5757C60.2265 54.3623 60.0465 54.0157 60.0465 53.5357C60.0465 53.4023 60.0565 53.2757 60.0765 53.1557C60.1965 52.4223 60.5532 51.9023 61.1465 51.5957C61.2865 51.5223 61.4332 51.4857 61.5865 51.4857C61.6999 51.4857 61.8165 51.5023 61.9365 51.5357C62.0565 51.569 62.1265 51.589 62.1465 51.5957L62.3565 51.6557C62.4565 51.6823 62.5532 51.6957 62.6465 51.6957C62.7732 51.6957 62.8865 51.6723 62.9865 51.6257C63.0932 51.579 63.1999 51.5057 63.3065 51.4057C63.4599 51.279 63.6232 51.2157 63.7965 51.2157C63.9232 51.2157 64.0365 51.2523 64.1365 51.3257C64.2365 51.3923 64.3099 51.4923 64.3565 51.6257C64.3699 51.679 64.3765 51.7223 64.3765 51.7557C64.3765 51.8157 64.3665 51.8623 64.3465 51.8957C64.3265 51.9223 64.2699 52.009 64.1765 52.1557C64.1299 52.2423 64.0865 52.3157 64.0465 52.3757C64.0065 52.4357 63.9432 52.5023 63.8565 52.5757C63.7965 52.609 63.7332 52.6357 63.6665 52.6557C63.5999 52.669 63.5465 52.6823 63.5065 52.6957C63.4732 52.709 63.4565 52.7357 63.4565 52.7757ZM61.3565 52.6257C61.1499 52.8657 61.0465 53.109 61.0465 53.3557C61.0465 53.529 61.0999 53.6957 61.2065 53.8557C61.3199 54.009 61.4899 54.1423 61.7165 54.2557C61.9699 54.1557 62.1665 53.9823 62.3065 53.7357C62.4465 53.489 62.5165 53.219 62.5165 52.9257C62.5165 52.7457 62.4899 52.5823 62.4365 52.4357C62.3832 52.289 62.2765 52.1757 62.1165 52.0957C61.8099 52.2157 61.5565 52.3923 61.3565 52.6257ZM66.8212 53.7357C66.7546 53.7757 66.6579 53.7957 66.5312 53.7957C66.4846 53.7957 66.4279 53.7923 66.3612 53.7857C66.2946 53.779 66.2379 53.779 66.1912 53.7857C66.2446 54.0057 66.3712 54.1857 66.5712 54.3257C66.7712 54.459 66.9946 54.5257 67.2412 54.5257C67.4546 54.5257 67.6446 54.479 67.8112 54.3857C68.0579 54.259 68.2712 54.109 68.4512 53.9357C68.5779 53.809 68.6979 53.7457 68.8112 53.7457C68.8846 53.7457 68.9479 53.7823 69.0012 53.8557C69.0546 53.9423 69.0812 54.049 69.0812 54.1757C69.0812 54.309 69.0546 54.4123 69.0012 54.4857C68.8279 54.7523 68.6012 54.9357 68.3212 55.0357C68.0479 55.1357 67.7279 55.1857 67.3612 55.1857C66.9812 55.1857 66.6146 55.1023 66.2612 54.9357C65.9079 54.769 65.6046 54.5423 65.3512 54.2557C65.1046 53.9623 64.9412 53.639 64.8612 53.2857C64.8079 53.079 64.7812 52.8757 64.7812 52.6757C64.7812 52.3623 64.8679 52.109 65.0412 51.9157C65.2212 51.7223 65.5079 51.539 65.9012 51.3657C66.2612 51.2123 66.5946 51.1357 66.9012 51.1357C67.1212 51.1357 67.3346 51.169 67.5412 51.2357C68.1812 51.4357 68.5012 51.709 68.5012 52.0557C68.5012 52.2757 68.3712 52.5423 68.1112 52.8557C67.9846 53.0023 67.8346 53.1323 67.6612 53.2457C67.4879 53.359 67.3179 53.4623 67.1512 53.5557C66.9912 53.6423 66.8812 53.7023 66.8212 53.7357ZM67.2412 51.8857C67.2346 51.8523 67.2079 51.8257 67.1612 51.8057C67.1212 51.779 67.0979 51.7623 67.0912 51.7557C66.9112 51.7423 66.7279 51.7957 66.5412 51.9157C66.3546 52.029 66.1979 52.1757 66.0712 52.3557C65.9512 52.5357 65.8912 52.709 65.8912 52.8757L65.9012 52.9557C65.9079 52.9823 65.9412 53.0157 66.0012 53.0557C66.0679 53.0957 66.1079 53.109 66.1212 53.0957C66.5946 52.7423 66.9512 52.459 67.1912 52.2457C67.2312 52.2057 67.2512 52.1323 67.2512 52.0257C67.2512 51.959 67.2479 51.9123 67.2412 51.8857ZM69.919 54.2857C69.9323 54.1923 69.939 54.0557 69.939 53.8757L69.929 53.2857L69.809 51.5457L69.799 51.3957C69.799 51.0423 69.949 50.8657 70.249 50.8657C70.3223 50.8657 70.3856 50.8923 70.439 50.9457C70.499 50.999 70.5523 51.0257 70.599 51.0257C70.699 51.0257 70.7856 50.9823 70.859 50.8957C70.939 50.8023 71.0223 50.709 71.109 50.6157C71.249 50.469 71.4123 50.3523 71.599 50.2657C71.7923 50.179 71.9856 50.1357 72.179 50.1357C72.3656 50.1357 72.5156 50.159 72.629 50.2057C72.6623 50.219 72.699 50.249 72.739 50.2957C72.7856 50.3357 72.809 50.369 72.809 50.3957C72.809 50.4223 72.789 50.4623 72.749 50.5157C72.7156 50.5623 72.6856 50.589 72.659 50.5957C72.399 50.649 72.1723 50.759 71.979 50.9257C71.7923 51.0923 71.669 51.2457 71.609 51.3857C71.5556 51.519 71.4756 51.769 71.369 52.1357C71.309 52.3423 71.2623 52.5557 71.229 52.7757C71.2023 52.989 71.1923 53.2623 71.199 53.5957C71.1923 53.629 71.189 53.6757 71.189 53.7357C71.189 53.8223 71.1956 53.939 71.209 54.0857C71.2223 54.2457 71.229 54.359 71.229 54.4257C71.229 54.759 71.1923 54.949 71.119 54.9957C71.0123 55.049 70.8723 55.0757 70.699 55.0757C70.559 55.0757 70.4456 55.059 70.359 55.0257C70.059 54.9123 69.909 54.7057 69.909 54.4057C69.909 54.3523 69.9123 54.3123 69.919 54.2857Z" fill="#3A0084"/>
<path d="M18.7143 61.9956L49.3704 10.3936L80.0264 61.9956L18.7143 61.9956Z" stroke="#160031" stroke-width="0.1"/>
<path d="M35.0679 35.3994C35.4954 34.9343 35.8081 34.1732 36.1072 33.6211C36.6657 32.5907 37.168 31.1621 36.5797 30.0543C34.6908 26.4976 29.0962 29.1838 26.8056 30.7275C25.5321 31.5857 24.2263 32.7628 25.0261 34.3869C26.1709 36.7117 29.5303 37.3629 31.6874 38.3804C34.2616 39.5946 40.3673 42.6636 37.5193 46.2594C36.3108 47.7851 34.3925 48.4201 32.4957 48.7058C29.5316 49.1523 26.3416 49.1374 23.3673 48.8035C21.7106 48.6175 20.0673 48.3562 18.4802 47.8424C17.7097 47.5929 16.8598 47.2844 16.3805 46.5986C16.1107 46.2124 15.7526 45.4676 15.9081 44.9693C16.1277 44.2655 16.7285 44.0956 17.3464 44.0956C17.643 44.0956 18.4025 44.073 18.5327 43.8181" stroke="#3A0084" stroke-width="2" stroke-linecap="round"/>
<path d="M39.9812 36.8796C39.9812 41.4647 38.5486 45.7556 37.1047 50.0627C36.6559 51.4013 36.1949 52.706 35.6086 53.9945C35.2946 54.6845 34.9422 55.3664 34.69 56.0811C34.472 56.6989 34.5955 55.8103 34.5955 55.5672" stroke="#3A0084" stroke-width="2" stroke-linecap="round"/>
<path d="M39.9812 42.1528C39.9812 39.5604 41.5373 37.4993 44.1176 36.7562C45.1851 36.4488 45.8931 36.5837 46.4798 37.5066C47.2256 38.6798 47.1873 40.2039 46.716 41.4692C45.7297 44.1171 43.3439 46.1373 40.3277 45.5192C39.7289 45.3965 39.3314 44.9169 39.2358 44.332C39.1833 44.0109 39.1982 43.9105 39.5088 43.9105" stroke="#3A0084" stroke-width="2" stroke-linecap="round"/>
<path d="M49.3354 36.0471C48.5757 36.562 48.2404 37.3931 47.8131 38.1646C46.9158 39.7844 46.2466 41.946 46.3328 43.8027C46.3829 44.8829 47.1007 46.5951 48.485 45.9716C49.2118 45.6442 49.8945 45.079 50.5584 44.6456C51.4895 44.0379 52.3426 43.3012 53.0623 42.4613C54.1875 41.1483 55.6815 39.3731 55.9494 37.6198C56.1332 36.4171 55.5389 35.2046 54.3012 34.793C53.0568 34.3792 51.8772 34.8952 50.9101 35.6564C49.9743 36.3931 48.968 37.2186 48.5795 38.3599" stroke="#3A0084" stroke-width="2" stroke-linecap="round"/>
<path d="M58.2171 32.9941C57.2251 36.4968 56.1942 39.9699 54.9101 43.3864C54.518 44.4296 53.8886 45.498 53.6083 46.5729C53.5363 46.8488 53.4928 46.8759 53.4928 46.5935" stroke="#3A0084" stroke-width="2" stroke-linecap="round"/>
<path d="M56.9888 36.0471C57.4999 36.0471 57.5469 35.4833 57.7972 35.1682C57.9618 34.961 57.9698 34.7277 58.1646 34.5257C58.5365 34.1402 58.8986 33.7912 59.3929 33.5492C60.3845 33.0638 61.3942 32.9941 62.4743 32.9941C63.618 32.9941 63.7918 34.0635 63.7918 34.9832C63.7918 35.4413 63.7403 35.6697 63.4874 36.0676C63.203 36.5151 62.6572 37.0925 62.238 37.4142C61.492 37.9867 60.5465 38.254 59.7761 38.7762C59.1897 39.1737 58.4306 39.3573 57.7867 39.655C57.5717 39.7544 56.7878 39.8635 56.7053 40.0251" stroke="#3A0084" stroke-width="2" stroke-linecap="round"/>
<path d="M56.2329 40.1176C56.6575 40.0714 57.126 39.7023 57.5715 39.6088C59.5458 39.1946 61.5871 39.6293 63.5084 40.0765C69.1205 41.3827 75.0534 44.105 77.8704 49.2764" stroke="#3A0084" stroke-width="2" stroke-linecap="round"/>
<path d="M68.4217 29.3861C68.4217 32.8955 67.4836 36.1357 66.6789 39.5317C66.3041 41.1136 65.9787 42.6806 65.5136 44.2395C65.4775 44.3603 65.2624 45.4144 65.1146 44.8357" stroke="#3A0084" stroke-width="2" stroke-linecap="round"/>
<path d="M65.2091 36.3246C65.3501 36.1865 65.491 36.1123 65.6763 36.0316C66.4915 35.6769 67.3044 35.3178 68.1172 34.9575C69.922 34.1574 71.677 33.2496 73.4294 32.3466" stroke="#3A0084" stroke-width="2" stroke-linecap="round"/>
</svg>
