<svg width="555" height="204" viewBox="0 0 555 204" fill="none" xmlns="http://www.w3.org/2000/svg">
<path d="M48.08 146C48.6667 146.107 49.9733 148.16 52 152.16C54.0267 156.107 56.5067 161.227 59.44 167.52L62 172.88C63.12 171.653 64.16 170.24 65.12 168.64C66.08 166.987 67.28 164.773 68.72 162C70.3733 158.853 71.52 156.827 72.16 155.92C74.72 152.027 77.4933 147.893 80.48 143.52C80.8533 142.933 81.52 142.533 82.48 142.32C82.64 142.267 82.9067 142.24 83.28 142.24C84.56 142.24 85.9733 142.773 87.52 143.84C89.12 144.907 90.16 146 90.64 147.12C90.7467 147.333 90.8 147.733 90.8 148.32C90.8 148.853 90.7733 149.253 90.72 149.52C90.6133 150 90.48 150.613 90.32 151.36C90.2133 152.053 90.1067 152.88 90 153.84C88.2933 166.853 87.0667 176.613 86.32 183.12C86.1067 184.613 86 186.293 86 188.16L85.84 190.72C85.7867 191.253 85.76 191.867 85.76 192.56C85.76 193.253 85.68 193.733 85.52 194C85.36 194.267 85.0667 194.4 84.64 194.4C84.32 194.4 83.84 194.32 83.2 194.16C81.4933 193.787 80.1867 193.12 79.28 192.16C78.3733 191.147 77.8667 189.76 77.76 188C77.7067 187.093 77.68 185.68 77.68 183.76C77.68 181.787 77.7333 178.773 77.84 174.72L77.92 170.32L78.08 164C77.6 164.427 76.3733 166.107 74.4 169.04C72.48 171.92 70.5867 174.933 68.72 178.08C66.8533 181.227 65.6267 183.653 65.04 185.36C64.5067 186.693 63.9733 187.68 63.44 188.32C62.96 188.96 62.3733 189.28 61.68 189.28C61.04 189.28 60.2133 188.987 59.2 188.4C56.32 186.64 54.56 184.213 53.92 181.12C52.9067 176.373 51.6533 171.44 50.16 166.32C49.8933 165.36 49.36 164.053 48.56 162.4C47.8133 160.747 47.3333 159.707 47.12 159.28L46.08 157.2C38.2933 167.547 33.0133 177.04 30.24 185.68C29.7067 187.493 29.2 188.8 28.72 189.6C28.24 190.347 27.68 190.72 27.04 190.72C26.0267 190.72 24.5867 189.813 22.72 188C21.28 186.72 20.56 185.28 20.56 183.68C20.56 182.827 20.72 181.973 21.04 181.12C23.28 174.507 26.6133 168.24 31.04 162.32L33.52 159.04C36.88 154.613 39.4133 151.147 41.12 148.64C42.4 146.773 44.1067 145.84 46.24 145.84C46.6133 145.84 47.2267 145.893 48.08 146ZM141.166 153.12C141.486 155.413 141.806 158.747 142.126 163.12L142.286 167.28C142.286 175.013 143.299 181.92 145.326 188C145.592 188.853 145.726 189.947 145.726 191.28C145.726 192.027 145.672 193.04 145.566 194.32C145.512 195.173 145.192 195.84 144.606 196.32C144.019 196.853 143.272 197.12 142.366 197.12C142.259 197.12 141.966 197.067 141.486 196.96C140.152 196.64 139.139 196.053 138.446 195.2C137.752 194.293 137.406 193.2 137.406 191.92C137.406 191.493 137.432 191.173 137.486 190.96C137.486 190.64 137.486 190.187 137.486 189.6C137.486 188.64 137.432 187.76 137.326 186.96C136.899 184.88 136.232 182.107 135.326 178.64C135.006 177.2 134.339 176.48 133.326 176.48C132.952 176.48 132.526 176.56 132.046 176.72C130.392 177.2 128.926 177.653 127.646 178.08C126.419 178.507 125.326 178.853 124.366 179.12L120.526 180.24C118.339 180.88 116.312 181.387 114.446 181.76C112.472 182.187 111.032 183.28 110.126 185.04C109.272 186.64 108.046 188.8 106.446 191.52C105.432 193.333 104.099 194.24 102.446 194.24C101.646 194.24 100.846 194.053 100.046 193.68C99.299 193.253 98.659 192.72 98.1256 192.08C97.3256 191.173 96.9256 190.293 96.9256 189.44C96.9256 188.853 97.0856 188.24 97.4056 187.6L102.926 176.4C109.006 164.027 112.632 156.613 113.806 154.16C117.166 147.653 121.726 143.173 127.486 140.72C128.712 140.133 129.966 139.84 131.246 139.84C132.846 139.84 134.312 140.267 135.646 141.12C137.032 141.92 138.099 143.067 138.846 144.56C139.912 146.747 140.686 149.6 141.166 153.12ZM115.326 173.36C122.632 172.08 128.846 171.04 133.966 170.24C133.859 165.12 133.699 161.093 133.486 158.16C133.326 155.173 132.952 152.187 132.366 149.2C129.539 149.52 127.406 150.907 125.966 153.36C123.459 157.307 121.059 161.387 118.766 165.6C118.392 166.293 117.699 167.84 116.686 170.24L115.326 173.36ZM172.424 166.16C172.317 165.84 172.05 165.413 171.624 164.88C171.25 164.347 170.93 163.893 170.664 163.52C169.704 166.293 168.984 169.04 168.504 171.76C168.024 174.48 167.784 176.8 167.784 178.72C167.784 180.64 168.05 182.48 168.584 184.24C169.064 185.893 169.304 187.707 169.304 189.68C169.304 190.907 169.037 191.813 168.504 192.4C167.97 192.987 167.09 193.467 165.864 193.84C164.744 194.16 163.277 194.4 161.464 194.56L158.904 194.8C158.797 194.587 158.424 193.893 157.784 192.72C157.197 191.653 156.797 190.88 156.584 190.4C156.37 189.867 156.29 189.333 156.344 188.8C156.45 188.16 156.504 187.627 156.504 187.2C156.557 186.72 156.584 186.32 156.584 186C156.584 185.733 156.61 185.253 156.664 184.56C156.717 183.867 156.797 183.253 156.904 182.72C157.597 178.293 158.45 174.24 159.464 170.56C160.53 166.88 161.944 163.413 163.704 160.16C163.97 159.68 164.21 159.253 164.424 158.88C164.637 158.507 164.824 158.187 164.984 157.92C165.144 157.707 165.57 156.96 166.264 155.68C166.85 154.613 167.597 153.76 168.504 153.12C169.41 152.48 170.21 151.947 170.904 151.52C171.597 151.04 172.504 150.667 173.624 150.4C174.05 150.293 174.397 150.24 174.664 150.24C176.05 150.293 176.984 150.987 177.464 152.32L185.624 174.08C187.17 178.24 188.504 181.547 189.624 184C190.104 182.987 190.45 182 190.664 181.04C190.93 180.08 191.144 179.173 191.304 178.32C193.17 168.293 197.304 158.48 203.704 148.88C204.237 148.347 204.904 147.76 205.704 147.12C206.504 146.427 207.09 145.92 207.464 145.6C208.957 146.773 209.704 147.947 209.704 149.12C209.704 149.813 209.464 150.693 208.984 151.76C208.717 152.4 208.024 153.76 206.904 155.84L205.224 159.2C203.57 162.613 202.424 166.24 201.784 170.08C201.144 173.92 200.664 178.373 200.344 183.44C200.237 184.88 200.184 187.067 200.184 190C200.13 190.747 200.104 191.84 200.104 193.28C200.104 195.04 199.81 196.32 199.224 197.12C198.69 197.92 197.597 198.587 195.944 199.12C194.717 199.44 193.25 199.707 191.544 199.92L189.224 200.32C187.25 198.187 185.597 195.947 184.264 193.6C182.984 191.253 181.49 188.16 179.784 184.32C179.144 182.72 177.837 179.493 175.864 174.64C173.89 169.733 172.744 166.907 172.424 166.16ZM222.232 191.28C221.059 191.28 220.072 190.987 219.272 190.4C218.525 189.813 217.992 188.72 217.672 187.12C219.379 187.28 220.632 186.907 221.432 186C222.285 185.093 223.059 183.733 223.752 181.92L225.432 177.12C225.752 176.267 226.552 174.027 227.832 170.4C229.165 166.773 230.525 163.387 231.912 160.24C233.725 155.973 236.499 150.8 240.232 144.72C241.192 143.227 242.339 142.107 243.672 141.36C245.005 140.56 246.419 140.16 247.912 140.16C249.245 140.16 250.525 140.507 251.752 141.2C253.032 141.84 254.152 142.8 255.112 144.08C255.912 145.147 256.632 146.32 257.272 147.6C257.912 148.827 258.712 150.48 259.672 152.56L261.192 155.76C261.565 156.613 261.859 157.787 262.072 159.28C262.339 161.733 263.432 163.253 265.352 163.84C265.619 163.947 265.912 164.213 266.232 164.64C266.552 165.013 266.819 165.333 267.032 165.6C265.432 166.667 264.632 168.08 264.632 169.84C264.632 170.8 264.872 172.133 265.352 173.84C265.992 176.133 266.632 178.72 267.272 181.6C267.965 184.427 268.419 186.347 268.632 187.36L269.592 191.76C269.645 191.973 269.672 192.267 269.672 192.64L269.592 194.8C269.112 194.96 268.472 195.2 267.672 195.52C266.872 195.84 266.205 196 265.672 196C264.232 196 262.632 195.68 260.872 195.04C260.179 194.827 259.725 194.48 259.512 194C259.352 193.467 259.272 192.827 259.272 192.08C259.272 191.333 259.245 190.8 259.192 190.48L258.792 188.24C257.032 178.587 255.992 173.227 255.672 172.16C254.392 172.533 252.765 172.8 250.792 172.96C248.445 173.28 246.819 173.573 245.912 173.84C245.432 174 244.605 174.08 243.432 174.08L240.152 174C238.659 174 237.539 174.16 236.792 174.48C236.365 174.693 235.405 176.8 233.912 180.8C232.792 183.68 232.099 185.36 231.832 185.84C230.819 187.707 229.485 189.093 227.832 190C226.179 190.853 224.312 191.28 222.232 191.28ZM240.312 165.12C241.325 164.96 242.499 164.88 243.832 164.88H246.712C248.419 164.88 249.859 164.8 251.032 164.64C252.259 164.427 253.352 164.027 254.312 163.44C253.885 162.267 252.925 160.24 251.432 157.36C249.779 154.107 248.632 151.573 247.992 149.76C245.965 153.013 244.339 155.787 243.112 158.08C241.939 160.373 241.005 162.72 240.312 165.12ZM314.152 142.4C317.085 142.773 319.539 144.293 321.512 146.96C320.819 147.973 320.072 148.72 319.272 149.2C318.525 149.627 317.592 149.867 316.472 149.92C311.832 149.973 307.859 150.16 304.552 150.48C301.299 150.8 297.832 151.867 294.152 153.68C290.525 155.493 288.472 158.4 287.992 162.4C286.552 165.333 285.832 168.773 285.832 172.72C285.832 174.747 286.072 177.333 286.552 180.48C287.192 184.533 289.192 186.56 292.552 186.56C293.405 186.56 294.072 186.507 294.552 186.4C297.379 185.92 300.205 184.853 303.032 183.2C304.632 182.187 306.232 181.04 307.832 179.76C309.432 178.427 310.392 177.653 310.712 177.44L312.792 175.76C313.379 175.227 313.805 174.747 314.072 174.32C314.392 173.84 314.552 173.253 314.552 172.56C314.552 172.293 314.499 171.893 314.392 171.36C312.579 171.52 309.912 171.707 306.392 171.92L304.072 172.08C303.059 172.187 301.539 172.293 299.512 172.4C297.325 172.4 295.592 171.893 294.312 170.88C293.085 169.813 292.125 168.08 291.432 165.68C291.592 165.573 291.779 165.413 291.992 165.2C292.205 164.987 292.392 164.88 292.552 164.88L295.352 164.56C301.485 163.813 306.152 163.36 309.352 163.2C311.965 163.04 315.005 163.253 318.472 163.84C323.272 164.64 325.672 166.853 325.672 170.48C325.672 171.813 325.405 173.2 324.872 174.64C324.605 175.44 324.179 176.373 323.592 177.44C322.365 180.053 320.685 182.32 318.552 184.24C316.419 186.16 313.832 188 310.792 189.76C308.392 191.2 306.285 192.32 304.472 193.12C302.659 193.92 300.739 194.4 298.712 194.56C298.232 194.613 297.485 194.64 296.472 194.64C291.832 194.64 287.619 193.067 283.832 189.92C281.965 188.32 280.525 186.613 279.512 184.8C278.552 182.933 277.992 180.827 277.832 178.48C277.725 176.88 277.672 175.76 277.672 175.12C277.672 172.08 278.045 169.253 278.792 166.64C279.539 163.973 280.952 159.84 283.032 154.24C285.112 149.707 288.472 146.533 293.112 144.72C297.752 142.853 302.659 141.92 307.832 141.92C310.019 141.92 312.125 142.08 314.152 142.4ZM354.808 166.24C354.808 166.453 354.834 166.693 354.888 166.96C354.941 167.173 354.994 167.387 355.048 167.6C355.474 167.653 356.114 167.68 356.968 167.68C360.701 167.68 364.541 166.88 368.488 165.28C369.608 164.853 370.541 164.64 371.288 164.64C372.781 164.64 374.008 165.333 374.968 166.72C375.448 167.467 375.688 168.107 375.688 168.64C375.688 169.28 375.341 169.947 374.648 170.64C372.514 172.613 370.248 173.733 367.848 174C365.714 174.267 362.514 174.72 358.248 175.36L352.648 176.16C351.794 178.027 351.368 179.84 351.368 181.6C351.368 184.16 352.248 186.293 354.008 188C355.821 189.653 358.274 190.533 361.368 190.64C364.514 190.693 368.541 190.48 373.448 190L374.648 189.92C375.981 189.92 377.074 190.24 377.928 190.88C378.834 191.467 379.688 192.533 380.488 194.08C379.901 195.36 379.074 196.213 378.008 196.64C376.941 197.12 375.554 197.467 373.848 197.68C372.088 197.893 370.088 198 367.848 198C362.994 198 358.621 197.227 354.728 195.68C347.848 193.013 343.448 188.4 341.528 181.84C341.261 180.933 341.128 179.973 341.128 178.96C341.128 177.893 341.128 177.253 341.128 177.04C341.128 175.227 340.248 173.893 338.488 173.04C337.048 172.24 335.928 171.467 335.128 170.72C334.381 169.973 333.901 168.853 333.688 167.36L342.728 166.8L346.808 155.04C346.914 154.667 347.021 154.213 347.128 153.68C347.288 153.093 347.448 152.64 347.608 152.32C348.088 151.253 348.328 150.373 348.328 149.68C348.328 148.613 347.821 147.68 346.808 146.88C346.434 146.613 346.114 146.133 345.848 145.44C345.634 144.693 345.421 144.107 345.208 143.68L346.968 143.12C347.821 142.907 348.434 142.72 348.808 142.56C349.021 142.453 349.474 142.267 350.168 142C350.861 141.68 351.261 141.333 351.368 140.96C351.741 140.053 352.194 139.44 352.728 139.12C353.314 138.8 354.008 138.64 354.808 138.64C355.341 138.64 356.141 138.693 357.208 138.8C357.528 138.8 357.848 138.88 358.168 139.04C358.541 139.147 358.834 139.307 359.048 139.52C360.274 140.8 361.634 141.653 363.128 142.08C364.621 142.507 366.381 142.72 368.408 142.72H371.848H378.568C383.101 142.72 386.488 142.773 388.728 142.88C389.901 142.933 391.394 143.44 393.208 144.4C393.528 144.56 393.768 144.88 393.928 145.36C394.141 145.787 394.248 146.213 394.248 146.64C394.248 146.853 394.061 147.12 393.688 147.44C393.314 147.707 392.968 147.893 392.648 148C389.021 148.96 386.274 149.52 384.408 149.68C381.528 149.947 377.208 150.293 371.448 150.72C370.114 150.773 367.981 150.907 365.048 151.12C364.834 151.12 364.461 151.067 363.928 150.96C363.394 150.8 362.994 150.72 362.728 150.72C360.754 150.72 359.501 151.547 358.968 153.2C357.528 157.467 356.168 161.707 354.888 165.92L354.808 166.24ZM419.386 180.48C419.119 180.267 418.772 179.893 418.346 179.36C417.972 178.773 417.652 178.32 417.386 178L423.786 174.96L425.786 174C426.959 173.467 427.839 173.04 428.426 172.72C432.159 170.427 435.919 168.027 439.706 165.52C440.826 164.72 441.919 163.6 442.986 162.16C443.786 160.88 444.212 159.867 444.266 159.12C444.372 157.787 443.439 156.693 441.466 155.84C439.866 155.147 437.759 154.427 435.146 153.68C431.999 152.773 428.692 151.973 425.226 151.28C424.372 151.173 423.679 151.12 423.146 151.12C422.239 151.12 421.492 151.227 420.906 151.44C418.292 152.4 416.159 152.907 414.506 152.96C413.332 152.96 412.106 152.72 410.826 152.24C409.919 150.853 409.466 149.6 409.466 148.48C409.466 147.2 410.079 146.24 411.306 145.6C413.599 144.427 415.492 143.947 416.986 144.16C422.799 145.013 428.132 146.133 432.986 147.52C437.839 148.853 442.399 150.693 446.666 153.04C447.732 153.627 448.692 154.4 449.546 155.36C450.452 156.32 451.546 157.653 452.826 159.36C453.252 160.053 453.492 160.747 453.546 161.44C453.652 162.56 453.119 163.787 451.946 165.12C450.079 167.253 447.332 169.467 443.706 171.76C442.106 172.773 440.692 173.627 439.466 174.32C438.292 175.013 437.306 175.6 436.506 176.08L432.906 178.24C432.266 178.613 431.439 179.067 430.426 179.6C430.586 179.973 430.852 180.587 431.226 181.44C431.652 182.293 432.052 183.04 432.426 183.68C436.159 190.027 441.519 194.507 448.506 197.12C451.226 198.133 452.932 198.8 453.626 199.12C454.266 199.44 454.746 199.733 455.066 200C455.439 200.32 455.626 200.72 455.626 201.2C455.626 201.467 455.546 201.76 455.386 202.08C455.119 202.88 454.559 203.28 453.706 203.28C453.439 203.28 453.172 203.253 452.906 203.2C452.692 203.147 452.506 203.093 452.346 203.04C444.132 201.547 436.799 197.653 430.346 191.36C428.692 189.76 426.879 187.787 424.906 185.44C423.999 184.373 422.826 183.307 421.386 182.24L419.386 180.48ZM403.626 166.96C403.679 166.8 403.839 165.893 404.106 164.24C404.106 163.92 404.159 163.387 404.266 162.64C405.332 161.733 406.426 161.28 407.546 161.28C408.612 161.28 409.946 161.68 411.546 162.48C412.186 162.8 412.692 163.253 413.066 163.84C413.439 164.427 413.626 165.067 413.626 165.76C413.626 166.187 413.546 166.64 413.386 167.12C413.172 167.92 412.666 169.28 411.866 171.2L410.826 174.08L409.946 176.72C409.679 177.627 409.039 179.573 408.026 182.56C407.066 185.547 406.239 188.347 405.546 190.96C405.226 192.187 404.692 193.147 403.946 193.84C403.252 194.48 402.292 194.96 401.066 195.28C400.532 195.44 400.026 195.52 399.546 195.52C398.746 195.52 398.132 195.253 397.706 194.72C397.332 194.187 397.172 193.413 397.226 192.4C397.492 188.347 398.106 184.747 399.066 181.6C399.599 179.893 400.479 177.013 401.706 172.96C401.919 172.267 402.186 171.44 402.506 170.48C402.879 169.467 403.252 168.293 403.626 166.96Z" fill="#3A0084"/>
<path d="M154.708 44.8615C157.218 42.1205 159.054 37.6353 160.81 34.3823C164.089 28.3099 167.038 19.8913 163.584 13.3632C152.494 -7.59546 119.649 8.23355 106.2 17.3308C98.7239 22.3881 91.0573 29.3242 95.7528 38.895C102.474 52.5947 122.197 56.432 134.861 62.4279C149.975 69.5833 185.821 87.6685 169.1 108.858C162.005 117.849 150.743 121.591 139.607 123.274C122.205 125.905 103.476 125.817 86.0142 123.85C76.2877 122.754 66.6401 121.214 57.3225 118.186C52.7989 116.716 47.8089 114.898 44.9952 110.857C43.4109 108.581 41.3087 104.192 42.2215 101.256C43.511 97.1083 47.0383 96.1069 50.6657 96.1069C52.4068 96.1069 56.8663 95.9738 57.6306 94.4714" stroke="#3A0084" stroke-width="6" stroke-linecap="round"/>
<path d="M183.554 53.5842C183.554 80.6031 175.143 105.889 166.665 131.27C164.031 139.158 161.325 146.847 157.882 154.44C156.039 158.506 153.97 162.524 152.489 166.736C151.209 170.376 151.934 165.14 151.934 163.707" stroke="#3A0084" stroke-width="6" stroke-linecap="round"/>
<path d="M183.554 84.6585C183.554 69.3816 192.689 57.2361 207.839 52.8572C214.106 51.0458 218.262 51.8406 221.707 57.2791C226.086 64.1926 225.861 73.174 223.094 80.6303C217.303 96.2338 203.296 108.139 185.588 104.496C182.073 103.773 179.739 100.947 179.178 97.5001C178.87 95.608 178.957 95.0166 180.78 95.0166" stroke="#3A0084" stroke-width="6" stroke-linecap="round"/>
<path d="M238.472 48.6778C234.012 51.7122 232.044 56.6098 229.535 61.156C224.267 70.7015 220.338 83.4392 220.844 94.3807C221.138 100.746 225.352 110.836 233.479 107.162C237.747 105.233 241.755 101.902 245.653 99.3477C251.119 95.7666 256.127 91.4252 260.353 86.4758C266.959 78.7386 275.73 68.2775 277.303 57.9456C278.382 50.8584 274.893 43.7131 267.626 41.2878C260.321 38.8495 253.395 41.8903 247.717 46.376C242.223 50.7167 236.315 55.5813 234.034 62.3069" stroke="#3A0084" stroke-width="6" stroke-linecap="round"/>
<path d="M290.617 30.6874C284.792 51.3282 278.74 71.7944 271.201 91.9274C268.899 98.0751 265.204 104.371 263.558 110.705C263.136 112.331 262.88 112.491 262.88 110.826" stroke="#3A0084" stroke-width="6" stroke-linecap="round"/>
<path d="M283.405 48.6778C286.406 48.6778 286.682 45.3554 288.151 43.4987C289.118 42.2776 289.165 40.9032 290.308 39.7129C292.492 37.4408 294.617 35.3845 297.52 33.9584C303.341 31.0979 309.269 30.6874 315.61 30.6874C322.325 30.6874 323.346 36.9892 323.346 42.4084C323.346 45.108 323.043 46.4539 321.558 48.7989C319.888 51.4362 316.684 54.8385 314.223 56.7341C309.843 60.108 304.292 61.6829 299.77 64.7601C296.327 67.1025 291.87 68.1847 288.09 69.9392C286.827 70.5248 282.225 71.1678 281.741 72.1198" stroke="#3A0084" stroke-width="6" stroke-linecap="round"/>
<path d="M278.967 72.6649C281.46 72.3927 284.21 70.2173 286.826 69.6665C298.417 67.2254 310.402 69.7875 321.681 72.4226C354.63 80.1197 389.462 96.1617 406 126.636" stroke="#3A0084" stroke-width="6" stroke-linecap="round"/>
<path d="M350.527 9.4259C350.527 30.1064 345.02 49.2002 340.296 69.2122C338.095 78.5342 336.185 87.7683 333.454 96.9549C333.242 97.6669 331.979 103.878 331.112 100.468" stroke="#3A0084" stroke-width="6" stroke-linecap="round"/>
<path d="M331.666 50.3132C332.494 49.4997 333.321 49.0619 334.409 48.5868C339.195 46.4963 343.968 44.38 348.74 42.2569C359.336 37.5422 369.639 32.1928 379.928 26.8712" stroke="#3A0084" stroke-width="6" stroke-linecap="round"/>
</svg>
